<?xml version="1.0" encoding="UTF-8"?>
<svg xmlns="http://www.w3.org/2000/svg" xmlns:xlink="http://www.w3.org/1999/xlink" width="24" height="24" viewBox="0 0 24 24" version="1.1">
<g id="surface1">
<path style="fill-rule:nonzero;fill:rgb(1.176471%,1.176471%,1.176471%);fill-opacity:1;stroke-width:0.27626;stroke-linecap:butt;stroke-linejoin:miter;stroke:rgb(0%,0%,0%);stroke-opacity:1;stroke-miterlimit:1;" d="M 0.000205326 0.000166322 L 0.0503293 0.00137167 L 0.0509992 20.595733 L 0.000875186 20.594528 Z M 0.000205326 0.000166322 " transform="matrix(-0.0226053,2.026282,0.940034,-0.00234202,2.066255,21.523022)"/>
<path style="fill-rule:nonzero;fill:rgb(1.176471%,1.176471%,1.176471%);fill-opacity:1;stroke-width:0.27626;stroke-linecap:butt;stroke-linejoin:miter;stroke:rgb(0%,0%,0%);stroke-opacity:1;stroke-miterlimit:1;" d="M 0.0000918429 -0.00185094 L 0.0502155 -0.00085812 L 0.0499126 10.105228 L -0.00021108 10.104235 Z M 0.0000918429 -0.00185094 " transform="matrix(-2.026322,-0.0186196,0.00419103,0.940027,12.008006,2.536898)"/>
<path style="fill-rule:nonzero;fill:rgb(1.176471%,1.176471%,1.176471%);fill-opacity:1;stroke-width:0.27626;stroke-linecap:butt;stroke-linejoin:miter;stroke:rgb(0%,0%,0%);stroke-opacity:1;stroke-miterlimit:1;" d="M -0.000222821 0.000878294 L 0.0229597 0.00338295 L 0.0229864 20.610867 L 0.00106443 20.612495 Z M -0.000222821 0.000878294 " transform="matrix(-1.636829,-1.568167,-0.445831,0.478249,11.996121,11.784387)"/>
<path style="fill-rule:nonzero;fill:rgb(1.176471%,1.176471%,1.176471%);fill-opacity:1;stroke-width:0.27626;stroke-linecap:butt;stroke-linejoin:miter;stroke:rgb(0%,0%,0%);stroke-opacity:1;stroke-miterlimit:1;" d="M -0.000322353 0.00123591 L 0.0228606 0.0014714 L 0.0224267 20.613947 L -0.000756201 20.613712 Z M -0.000322353 0.00123591 " transform="matrix(1.680446,-1.521335,0.445382,0.478668,12.01171,11.608293)"/>
<path style="fill-rule:nonzero;fill:rgb(1.176471%,1.176471%,1.176471%);fill-opacity:1;stroke-width:0.310252;stroke-linecap:butt;stroke-linejoin:miter;stroke:rgb(0%,0%,0%);stroke-opacity:1;stroke-miterlimit:1;" d="M 2 0 C 2 -1.105469 1.105469 -2 0 -2 C -1.105469 -2 -2 -1.105469 -2 0 C -2 1.105469 -1.105469 2 0 2 C 1.105469 2 2 1.105469 2 0 Z M 2 0 " transform="matrix(1,0,0,1,2.5,21.5)"/>
<path style="fill-rule:nonzero;fill:rgb(1.176471%,1.176471%,1.176471%);fill-opacity:1;stroke-width:0.310252;stroke-linecap:butt;stroke-linejoin:miter;stroke:rgb(0%,0%,0%);stroke-opacity:1;stroke-miterlimit:1;" d="M 2 0 C 2 -1.105469 1.105469 -2 0 -2 C -1.105469 -2 -2 -1.105469 -2 0 C -2 1.105469 -1.105469 2 0 2 C 1.105469 2 2 1.105469 2 0 Z M 2 0 " transform="matrix(1,0,0,1,21.5,21.5)"/>
<path style="fill-rule:nonzero;fill:rgb(1.176471%,1.176471%,1.176471%);fill-opacity:1;stroke-width:0.310252;stroke-linecap:butt;stroke-linejoin:miter;stroke:rgb(0%,0%,0%);stroke-opacity:1;stroke-miterlimit:1;" d="M 2 0 C 2 -1.105469 1.105469 -2 0 -2 C -1.105469 -2 -2 -1.105469 -2 0 C -2 1.105469 -1.105469 2 0 2 C 1.105469 2 2 1.105469 2 0 Z M 2 0 " transform="matrix(1,0,0,1,12,2.5)"/>
<path style="fill-rule:nonzero;fill:rgb(1.176471%,1.176471%,1.176471%);fill-opacity:1;stroke-width:0.310252;stroke-linecap:butt;stroke-linejoin:miter;stroke:rgb(0%,0%,0%);stroke-opacity:1;stroke-miterlimit:1;" d="M 2.011727 -0.00153375 C 2.011727 -1.126534 1.109384 -2.03669 0.00000875 -2.03669 C -1.109366 -2.03669 -2.01171 -1.126534 -2.01171 -0.00153375 C -2.01171 1.123466 -1.109366 2.037529 0.00000875 2.037529 C 1.109384 2.037529 2.011727 1.123466 2.011727 -0.00153375 Z M 2.011727 -0.00153375 " transform="matrix(1,0,0,1,12.01171,12.03669)"/>
</g>
</svg>
