<?xml version="1.0" encoding="UTF-8" standalone="no"?>
<svg
   xmlns:osb="http://www.openswatchbook.org/uri/2009/osb"
   xmlns:dc="http://purl.org/dc/elements/1.1/"
   xmlns:cc="http://creativecommons.org/ns#"
   xmlns:rdf="http://www.w3.org/1999/02/22-rdf-syntax-ns#"
   xmlns:svg="http://www.w3.org/2000/svg"
   xmlns="http://www.w3.org/2000/svg"
   xmlns:sodipodi="http://sodipodi.sourceforge.net/DTD/sodipodi-0.dtd"
   xmlns:inkscape="http://www.inkscape.org/namespaces/inkscape"
   width="24"
   height="24"
   viewBox="0 0 24 24"
   version="1.1"
   id="svg831"
   sodipodi:docname="ic_title_24px.svg"
   inkscape:version="0.92.4 (5da689c313, 2019-01-14)">
  <metadata
     id="metadata837">
    <rdf:RDF>
      <cc:Work
         rdf:about="">
        <dc:format>image/svg+xml</dc:format>
        <dc:type
           rdf:resource="http://purl.org/dc/dcmitype/StillImage" />
        <dc:title></dc:title>
      </cc:Work>
    </rdf:RDF>
  </metadata>
  <defs
     id="defs835">
    <linearGradient
       id="linearGradient926"
       osb:paint="solid">
      <stop
         style="stop-color:#000000;stop-opacity:1;"
         offset="0"
         id="stop924" />
    </linearGradient>
  </defs>
  <sodipodi:namedview
     pagecolor="#ffffff"
     bordercolor="#666666"
     borderopacity="1"
     objecttolerance="10"
     gridtolerance="10"
     guidetolerance="10"
     inkscape:pageopacity="0"
     inkscape:pageshadow="2"
     inkscape:window-width="1920"
     inkscape:window-height="1001"
     id="namedview833"
     showgrid="false"
     inkscape:zoom="33.666667"
     inkscape:cx="12.788338"
     inkscape:cy="-0.7545631"
     inkscape:window-x="-9"
     inkscape:window-y="-9"
     inkscape:window-maximized="1"
     inkscape:current-layer="layer6" />
  <g
     inkscape:groupmode="layer"
     id="layer6"
     inkscape:label="allwhite">
    <rect
       style="display:inline;opacity:1;fill:#ffffff;fill-opacity:1;stroke:#000000;stroke-width:0.39941955;stroke-miterlimit:4;stroke-dasharray:0, 4.39361518;stroke-dashoffset:0;stroke-opacity:1"
       id="rect2422-2-0"
       width="23.752705"
       height="23.676514"
       x="0.12364761"
       y="0.12364761"
       ry="0.96638936" />
  </g>
  <path
     d="M0 0h24v24h-24z"
     fill="none"
     id="path829" />
  <path
     style="opacity:1;fill:#000000;fill-opacity:1;stroke:#000000;stroke-width:0.25;stroke-miterlimit:4;stroke-dasharray:none;stroke-dashoffset:0;stroke-opacity:1"
     id="path839"
     ry="2.6287129"
     rx="2.5841584"
     cy="12.103961"
     cx="3.4752474" />
  <g
     inkscape:groupmode="layer"
     id="layer1"
     inkscape:label="edge3"
     style="display:inline">
    <path
       style="display:inline;opacity:1;fill:#ffffff;fill-opacity:1;stroke:#ff0000;stroke-width:0.21924271;stroke-miterlimit:4;stroke-dasharray:none;stroke-dashoffset:0;stroke-opacity:1"
       id="path922-8"
       sodipodi:type="arc"
       sodipodi:cx="8.8398256"
       sodipodi:cy="10.070212"
       sodipodi:rx="6.3072157"
       sodipodi:ry="5.7250557"
       sodipodi:start="3.1415927"
       sodipodi:end="0"
       d="M 2.5326099,10.070212 A 6.3072157,5.7250557 0 0 1 8.8398258,4.3451567 6.3072157,5.7250557 0 0 1 15.147041,10.070212 l -6.3072154,0 z" />
    <path
       style="display:inline;opacity:1;fill:#ffffff;fill-opacity:1;stroke:#0000ff;stroke-width:0.22108506;stroke-miterlimit:4;stroke-dasharray:none;stroke-dashoffset:0;stroke-opacity:1"
       id="path922-8-6-9"
       sodipodi:type="arc"
       sodipodi:cx="-12.027911"
       sodipodi:cy="-10.114727"
       sodipodi:rx="9.3361025"
       sodipodi:ry="9.7989998"
       sodipodi:start="3.1415927"
       sodipodi:end="0"
       d="m -21.364014,-10.114727 a 9.3361025,9.7989998 0 0 1 9.336103,-9.799 9.3361025,9.7989998 0 0 1 9.3361023,9.799 l -9.3361023,0 z"
       transform="matrix(-0.99999456,0.00329773,-1.8330107e-4,-0.99999998,0,0)" />
  </g>
  <g
     inkscape:groupmode="layer"
     id="layer3"
     inkscape:label="edge2"
     style="display:inline">
    <path
       style="display:inline;opacity:1;fill:#ffffff;fill-opacity:1;stroke:#ff0000;stroke-width:0.21924272;stroke-miterlimit:4;stroke-dasharray:none;stroke-dashoffset:0;stroke-opacity:1"
       id="path922-1-5"
       sodipodi:type="arc"
       sodipodi:cx="18.25128"
       sodipodi:cy="9.9335833"
       sodipodi:rx="3.2362802"
       sodipodi:ry="3.0456922"
       sodipodi:start="3.1415927"
       sodipodi:end="0"
       d="m 15.015,9.9335831 a 3.2362802,3.0456922 0 0 1 3.23628,-3.045692 3.2362802,3.0456922 0 0 1 3.23628,3.0456922 h -3.23628 z"
       transform="matrix(0.99998541,0.00540193,-0.00550803,0.99998483,0,0)"
       inkscape:transform-center-x="5.6749495"
       inkscape:transform-center-y="-1.9733219" />
    <path
       style="display:inline;opacity:1;fill:#ffffff;fill-opacity:1;stroke:#ff0000;stroke-width:0.21924272;stroke-miterlimit:4;stroke-dasharray:none;stroke-dashoffset:0;stroke-opacity:1"
       id="path922-1-5-6"
       sodipodi:type="arc"
       sodipodi:cx="5.9534736"
       sodipodi:cy="9.7782869"
       sodipodi:rx="3.2362802"
       sodipodi:ry="3.0456922"
       sodipodi:start="3.1415927"
       sodipodi:end="0"
       d="M 2.7171934,9.7782868 A 3.2362802,3.0456922 0 0 1 5.9534736,6.7325947 3.2362802,3.0456922 0 0 1 9.1897538,9.7782869 H 5.9534736 Z"
       transform="matrix(0.99998541,0.00540193,-0.00550803,0.99998483,0,0)"
       inkscape:transform-center-x="5.6749493"
       inkscape:transform-center-y="-1.9733222" />
    <path
       style="display:inline;opacity:1;fill:#ffffff;fill-opacity:1;stroke:#0000ff;stroke-width:0.21924318;stroke-miterlimit:4;stroke-dasharray:none;stroke-dashoffset:0;stroke-opacity:1"
       id="path922-8-6"
       sodipodi:type="arc"
       sodipodi:cx="-15.357998"
       sodipodi:cy="-10.024595"
       sodipodi:rx="6.1479278"
       sodipodi:ry="5.7246504"
       sodipodi:start="3.1415927"
       sodipodi:end="0"
       d="m -21.505926,-10.024596 a 6.1479278,5.7246504 0 0 1 6.147928,-5.72465 6.1479278,5.7246504 0 0 1 6.1479279,5.724651 l -6.1479279,0 z"
       transform="matrix(-0.99996611,-0.00823317,0.01117121,-0.9999376,0,0)" />
  </g>
  <g
     inkscape:groupmode="layer"
     id="layer5"
     inkscape:label="edge1">
    <path
       style="display:inline;opacity:1;fill:#ffffff;fill-opacity:1;stroke:#0000ff;stroke-width:0.21924271;stroke-miterlimit:4;stroke-dasharray:none;stroke-dashoffset:0;stroke-opacity:1"
       id="path922-1"
       sodipodi:type="arc"
       sodipodi:cx="-12.115791"
       sodipodi:cy="-10.391356"
       sodipodi:rx="3.2362807"
       sodipodi:ry="3.045692"
       sodipodi:start="3.1415927"
       sodipodi:end="0"
       d="m -15.352072,-10.391357 a 3.2362807,3.045692 0 0 1 3.236281,-3.045691 3.2362807,3.045692 0 0 1 3.2362804,3.045692 h -3.2362804 z"
       transform="matrix(-0.9999911,0.00421997,-0.00430285,-0.99999074,0,0)" />
  </g>
  <g
     inkscape:groupmode="layer"
     id="layer4"
     inkscape:label="white"
     style="display:inline">
    <rect
       style="display:inline;opacity:1;fill:#ffffff;fill-opacity:1;stroke:#000000;stroke-width:0.10269625;stroke-miterlimit:4;stroke-dasharray:0, 1.12965868;stroke-dashoffset:0;stroke-opacity:1"
       id="rect2422"
       width="23.091032"
       height="1.6100447"
       x="0.25037369"
       y="9.5644598"
       ry="0.065716177" />
  </g>
  <g
     inkscape:groupmode="layer"
     id="layer2"
     inkscape:label="node"
     style="display:inline">
    <path
       style="display:inline;opacity:1;fill:#000000;fill-opacity:1;stroke:#000000;stroke-width:0.33274779;stroke-miterlimit:4;stroke-dasharray:none;stroke-dashoffset:0;stroke-opacity:1"
       id="path881-6"
       sodipodi:type="arc"
       sodipodi:cx="9.2588882"
       sodipodi:cy="10.285483"
       sodipodi:rx="1.3000921"
       sodipodi:ry="1.3043338"
       sodipodi:start="3.1504985"
       sodipodi:end="3.1415927"
       d="M 7.9588477,10.273867 A 1.3000921,1.3043338 0 0 1 9.267572,8.9811787 1.3000921,1.3043338 0 0 1 10.558967,10.291291 1.3000921,1.3043338 0 0 1 9.2559936,11.589814 1.3000921,1.3043338 0 0 1 7.9587961,10.285483 l 1.3000921,0 z" />
    <path
       style="display:inline;opacity:1;fill:#000000;fill-opacity:1;stroke:#000000;stroke-width:0.33274779;stroke-miterlimit:4;stroke-dasharray:none;stroke-dashoffset:0;stroke-opacity:1"
       id="path881-6-6"
       sodipodi:type="arc"
       sodipodi:cx="21.101727"
       sodipodi:cy="10.285483"
       sodipodi:rx="1.3000921"
       sodipodi:ry="1.3043338"
       sodipodi:start="3.1504985"
       sodipodi:end="3.1415927"
       d="m 19.801686,10.273867 a 1.3000921,1.3043338 0 0 1 1.308724,-1.2926883 1.3000921,1.3043338 0 0 1 1.291396,1.3101123 1.3000921,1.3043338 0 0 1 -1.302974,1.298523 1.3000921,1.3043338 0 0 1 -1.297198,-1.304331 l 1.300093,0 z" />
    <path
       style="display:inline;opacity:1;fill:#000000;fill-opacity:1;stroke:#000000;stroke-width:0.33274779;stroke-miterlimit:4;stroke-dasharray:none;stroke-dashoffset:0;stroke-opacity:1"
       id="path881"
       sodipodi:type="arc"
       sodipodi:cx="2.8515959"
       sodipodi:cy="10.19975"
       sodipodi:rx="1.3000921"
       sodipodi:ry="1.3043338"
       sodipodi:start="3.1504985"
       sodipodi:end="3.1415927"
       d="M 1.5515553,10.188134 A 1.3000921,1.3043338 0 0 1 2.8602796,8.8954452 1.3000921,1.3043338 0 0 1 4.1516751,10.205558 1.3000921,1.3043338 0 0 1 2.8487012,11.504081 1.3000921,1.3043338 0 0 1 1.5515038,10.19975 l 1.3000921,0 z" />
    <path
       style="display:inline;opacity:1;fill:#000000;fill-opacity:1;stroke:#000000;stroke-width:0.33274779;stroke-miterlimit:4;stroke-dasharray:none;stroke-dashoffset:0;stroke-opacity:1"
       id="path881-6-5"
       sodipodi:type="arc"
       sodipodi:cx="15.245489"
       sodipodi:cy="10.150414"
       sodipodi:rx="1.3000921"
       sodipodi:ry="1.3043338"
       sodipodi:start="3.1504985"
       sodipodi:end="3.1415927"
       d="m 13.945449,10.138798 a 1.3000921,1.3043338 0 0 1 1.308724,-1.2926882 1.3000921,1.3043338 0 0 1 1.291395,1.3101132 1.3000921,1.3043338 0 0 1 -1.302974,1.298522 1.3000921,1.3043338 0 0 1 -1.297197,-1.304331 l 1.300092,0 z" />
  </g>
</svg>
