<?xml version="1.0"?>
<svg width="24" height="24" xmlns="http://www.w3.org/2000/svg" xmlns:svg="http://www.w3.org/2000/svg">

 <g class="layer">
  <title>Layer 1</title>
  <path d="m0,0l24,0l0,24l-24,0l0,-24z" fill="none" id="svg_1" transform="matrix(1, 0, 0, 1, 0, 0)"/>
  <path d="m19,3l-14,0c-1.11,0 -2,0.9 -2,2l0,4l2,0l0,-4l14,0l0,14l-14,0l0,-4l-2,0l0,4c0,1.1 0.89,2 2,2l14,0c1.1,0 2,-0.9 2,-2l0,-14c0,-1.1 -0.9,-2 -2,-2z" fill="black" id="svg_2"/>
  <rect fill="black" height="7" id="svg_3" transform="matrix(1, 0, 0, 1, 0, 0)" width="2" x="11" y="8.5"/>
  <rect fill="black" height="7" id="svg_5" transform="rotate(90, 12, 12)" width="2" x="11" y="8.5"/>
  <rect fill="black" height="6.25" id="svg_6" width="2" x="3" y="8.958334"/>
 </g>
</svg>