<?xml version="1.0" encoding="UTF-8" standalone="no"?>
<svg
   xmlns:dc="http://purl.org/dc/elements/1.1/"
   xmlns:cc="http://creativecommons.org/ns#"
   xmlns:rdf="http://www.w3.org/1999/02/22-rdf-syntax-ns#"
   xmlns:svg="http://www.w3.org/2000/svg"
   xmlns="http://www.w3.org/2000/svg"
   xmlns:sodipodi="http://sodipodi.sourceforge.net/DTD/sodipodi-0.dtd"
   xmlns:inkscape="http://www.inkscape.org/namespaces/inkscape"
   width="24"
   height="24"
   viewBox="0 0 24 24"
   version="1.1"
   id="svg3729"
   sodipodi:docname="node_neighborhood_24px.svg"
   inkscape:version="0.92.4 (5da689c313, 2019-01-14)">
  <metadata
     id="metadata3735">
    <rdf:RDF>
      <cc:Work
         rdf:about="">
        <dc:format>image/svg+xml</dc:format>
        <dc:type
           rdf:resource="http://purl.org/dc/dcmitype/StillImage" />
      </cc:Work>
    </rdf:RDF>
  </metadata>
  <defs
     id="defs3733" />
  <sodipodi:namedview
     pagecolor="#ffffff"
     bordercolor="#666666"
     borderopacity="1"
     objecttolerance="10"
     gridtolerance="10"
     guidetolerance="10"
     inkscape:pageopacity="0"
     inkscape:pageshadow="2"
     inkscape:window-width="1920"
     inkscape:window-height="1001"
     id="namedview3731"
     showgrid="false"
     inkscape:zoom="33.666667"
     inkscape:cx="8.3650143"
     inkscape:cy="12"
     inkscape:window-x="-9"
     inkscape:window-y="-9"
     inkscape:window-maximized="1"
     inkscape:current-layer="svg3729" />
  <path
     d="M0 0h24v24h-24z"
     fill="none"
     id="path3725" />
  <path
     d="M12 8c-2.21 0-4 1.79-4 4s1.79 4 4 4 4-1.79 4-4-1.79-4-4-4zm-7 7h-2v4c0 1.1.9 2 2 2h4v-2h-4v-4zm0-10h4v-2h-4c-1.1 0-2 .9-2 2v4h2v-4zm14-2h-4v2h4v4h2v-4c0-1.1-.9-2-2-2zm0 16h-4v2h4c1.1 0 2-.9 2-2v-4h-2v4z"
     id="path3727" />
  <rect
     style="opacity:1;fill:#ffffff;fill-opacity:1;stroke:#fffffe;stroke-width:0.25;stroke-miterlimit:4;stroke-dasharray:none;stroke-dashoffset:0;stroke-opacity:1"
     id="rect3737"
     width="7.8415842"
     height="8.0495052"
     x="1.0396041"
     y="1.0693069" />
  <rect
     style="opacity:1;fill:#ffffff;fill-opacity:1;stroke:#fffffe;stroke-width:0.25;stroke-miterlimit:4;stroke-dasharray:none;stroke-dashoffset:0;stroke-opacity:1"
     id="rect3737-6"
     width="7.8415842"
     height="8.0495052"
     x="14.910892"
     y="0.93564343" />
  <rect
     style="opacity:1;fill:#ffffff;fill-opacity:1;stroke:#fffffe;stroke-width:0.25;stroke-miterlimit:4;stroke-dasharray:none;stroke-dashoffset:0;stroke-opacity:1"
     id="rect3737-8"
     width="7.8415842"
     height="8.0495052"
     x="1.0396039"
     y="14.836634" />
  <rect
     style="opacity:1;fill:#ffffff;fill-opacity:1;stroke:#fffffe;stroke-width:0.25;stroke-miterlimit:4;stroke-dasharray:none;stroke-dashoffset:0;stroke-opacity:1"
     id="rect3737-8-7"
     width="7.8415842"
     height="8.0495052"
     x="14.851485"
     y="15.074258" />
  <rect
     style="opacity:1;fill:#000000;fill-opacity:1;stroke:#000000;stroke-width:0.23637484;stroke-miterlimit:4;stroke-dasharray:none;stroke-dashoffset:0;stroke-opacity:1"
     id="rect4609"
     width="0.67919391"
     height="23.357525"
     x="11.66136"
     y="0.39886996" />
  <rect
     style="opacity:1;fill:#000000;fill-opacity:1;stroke:#000000;stroke-width:0.25205889;stroke-miterlimit:4;stroke-dasharray:none;stroke-dashoffset:0;stroke-opacity:1"
     id="rect4609-9-0"
     width="0.77036524"
     height="23.416687"
     x="-12.357874"
     y="0.28577518"
     transform="matrix(-0.00174738,-0.99999847,0.99999998,-1.9804066e-4,0,0)" />
</svg>
